<svg id="visual" viewBox="0 0 900 600" width="900" height="600" xmlns="http://www.w3.org/2000/svg" xmlns:xlink="http://www.w3.org/1999/xlink" version="1.1"><path d="M0 157L25 168C50 179 100 201 150 207C200 213 250 203 300 200C350 197 400 201 450 179C500 157 550 109 600 103C650 97 700 133 750 135C800 137 850 105 875 89L900 73L900 0L875 0C850 0 800 0 750 0C700 0 650 0 600 0C550 0 500 0 450 0C400 0 350 0 300 0C250 0 200 0 150 0C100 0 50 0 25 0L0 0Z" fill="#8b0515"></path><path d="M0 193L25 203C50 213 100 233 150 239C200 245 250 237 300 237C350 237 400 245 450 221C500 197 550 141 600 133C650 125 700 165 750 175C800 185 850 165 875 155L900 145L900 71L875 87C850 103 800 135 750 133C700 131 650 95 600 101C550 107 500 155 450 177C400 199 350 195 300 198C250 201 200 211 150 205C100 199 50 177 25 166L0 155Z" fill="#b40d12"></path><path d="M0 265L25 274C50 283 100 301 150 300C200 299 250 279 300 274C350 269 400 279 450 260C500 241 550 193 600 188C650 183 700 221 750 233C800 245 850 231 875 224L900 217L900 143L875 153C850 163 800 183 750 173C700 163 650 123 600 131C550 139 500 195 450 219C400 243 350 235 300 235C250 235 200 243 150 237C100 231 50 211 25 201L0 191Z" fill="#d04238"></path><path d="M0 325L25 333C50 341 100 357 150 358C200 359 250 345 300 344C350 343 400 355 450 350C500 345 550 323 600 319C650 315 700 329 750 337C800 345 850 347 875 348L900 349L900 215L875 222C850 229 800 243 750 231C700 219 650 181 600 186C550 191 500 239 450 258C400 277 350 267 300 272C250 277 200 297 150 298C100 299 50 281 25 272L0 263Z" fill="#d8544b"></path><path d="M0 439L25 450C50 461 100 483 150 485C200 487 250 469 300 456C350 443 400 435 450 428C500 421 550 415 600 424C650 433 700 457 750 468C800 479 850 477 875 476L900 475L900 347L875 346C850 345 800 343 750 335C700 327 650 313 600 317C550 321 500 343 450 348C400 353 350 341 300 342C250 343 200 357 150 356C100 355 50 339 25 331L0 323Z" fill="#d04238"></path><path d="M0 511L25 520C50 529 100 547 150 549C200 551 250 537 300 527C350 517 400 511 450 508C500 505 550 505 600 512C650 519 700 533 750 536C800 539 850 531 875 527L900 523L900 473L875 474C850 475 800 477 750 466C700 455 650 431 600 422C550 413 500 419 450 426C400 433 350 441 300 454C250 467 200 485 150 483C100 481 50 459 25 448L0 437Z" fill="#b40d12"></path><path d="M0 601L25 601C50 601 100 601 150 601C200 601 250 601 300 601C350 601 400 601 450 601C500 601 550 601 600 601C650 601 700 601 750 601C800 601 850 601 875 601L900 601L900 521L875 525C850 529 800 537 750 534C700 531 650 517 600 510C550 503 500 503 450 506C400 509 350 515 300 525C250 535 200 549 150 547C100 545 50 527 25 518L0 509Z" fill="#8b0515"></path></svg>